<svg width="43" height="42" viewBox="0 0 43 42" fill="none" xmlns="http://www.w3.org/2000/svg">
<circle cx="21.5341" cy="20.7963" r="20.6456" fill="white" fill-opacity="0.15"/>
<path d="M28.1055 19.0679H23.2483C23.0906 19.0679 22.9626 18.94 22.9626 18.7822V13.9251C22.9626 13.1361 22.323 12.4965 21.5341 12.4965C20.7451 12.4965 20.1055 13.1361 20.1055 13.9251V18.7822C20.1055 18.94 19.9776 19.0679 19.8198 19.0679H14.9626C14.1737 19.0679 13.5341 19.7076 13.5341 20.4965C13.5341 21.2854 14.1737 21.9251 14.9626 21.9251H19.8198C19.9776 21.9251 20.1055 22.053 20.1055 22.2108V27.0679C20.1055 27.8568 20.7451 28.4965 21.5341 28.4965C22.323 28.4965 22.9626 27.8568 22.9626 27.0679V22.2108C22.9626 22.053 23.0906 21.9251 23.2483 21.9251H28.1055C28.8944 21.9251 29.5341 21.2854 29.5341 20.4965C29.5341 19.7076 28.8944 19.0679 28.1055 19.0679Z" fill="white"/>
</svg>
