<svg width="42" height="42" viewBox="0 0 42 42" fill="none" xmlns="http://www.w3.org/2000/svg">
<circle cx="21.1163" cy="20.7963" r="20.6456" fill="white" fill-opacity="0.15"/>
<path d="M25.0713 19.7042C24.9903 19.5252 24.8123 19.4112 24.6163 19.4112H22.6163V12.9112C22.6163 12.6352 22.3923 12.4112 22.1163 12.4112H20.1163C19.8403 12.4112 19.6163 12.6352 19.6163 12.9112V19.4112H17.6163C17.4203 19.4112 17.2423 19.5262 17.1613 19.7042C17.0793 19.8832 17.1113 20.0922 17.2403 20.2402L20.7403 24.2402C20.8353 24.3492 20.9723 24.4112 21.1163 24.4112C21.2603 24.4112 21.3973 24.3482 21.4923 24.2402L24.9923 20.2402C25.1223 20.0932 25.1523 19.8832 25.0713 19.7042Z" fill="white"/>
<path d="M26.6162 23.4112V26.4112H15.6162V23.4112H13.6162V27.4112C13.6162 27.9642 14.0642 28.4112 14.6162 28.4112H27.6162C28.1692 28.4112 28.6162 27.9642 28.6162 27.4112V23.4112H26.6162Z" fill="white"/>
</svg>
