<svg width="42" height="42" viewBox="0 0 42 42" fill="none" xmlns="http://www.w3.org/2000/svg">
<circle cx="20.8253" cy="20.7963" r="20.6456" fill="white" fill-opacity="0.15"/>
<path d="M24.2603 22.8592H23.5376L23.2815 22.6122C24.178 21.5693 24.7177 20.2154 24.7177 18.7425C24.7177 15.4584 22.0556 12.7963 18.7715 12.7963C15.4873 12.7963 12.8252 15.4584 12.8252 18.7425C12.8252 22.0267 15.4873 24.6888 18.7715 24.6888C20.2443 24.6888 21.5982 24.149 22.6411 23.2525L22.8881 23.5087V24.2314L27.4621 28.7963L28.8252 27.4332L24.2603 22.8592ZM18.7715 22.8592C16.4936 22.8592 14.6548 21.0204 14.6548 18.7425C14.6548 16.4646 16.4936 14.6259 18.7715 14.6259C21.0493 14.6259 22.8881 16.4646 22.8881 18.7425C22.8881 21.0204 21.0493 22.8592 18.7715 22.8592Z" fill="white"/>
</svg>
