<svg width="189" height="42" viewBox="0 0 189 42" fill="none" xmlns="http://www.w3.org/2000/svg">
<g clip-path="url(#clip0)">
<path d="M0.0185547 22.6V27.8H5.41855C6.31855 27.8 7.11855 27.4 7.71855 26.8C8.31855 26.2 8.71855 25.5 8.71855 24.5V14.8H3.31855C2.41855 14.8 1.61855 15.2 1.01855 15.8C0.418555 16.4 0.0185547 17.1 0.0185547 18.1V22.6Z" fill="white"/>
<path d="M0.0185547 5.49999V0.299988H5.41855C6.31855 0.299988 7.11855 0.699988 7.71855 1.29999C8.31855 1.89999 8.71855 2.59999 8.71855 3.59999V13.3H3.31855C2.41855 13.3 1.61855 12.9 1.01855 12.3C0.418555 11.7 0.0185547 11 0.0185547 9.99999V5.49999Z" fill="white"/>
<path d="M16.3186 21.1V24.9H12.4186C11.8186 24.9 11.2186 24.7 10.7186 24.2C10.2186 23.7 10.0186 23.2 10.0186 22.5V15.4H13.9186C14.5186 15.4 15.1186 15.6 15.6186 16.1C16.1186 16.6 16.3186 17.1 16.3186 17.8V21.1Z" fill="white"/>
<path d="M20.6185 4.19999H25.7185V17.6H25.9185L32.2185 4.19999H39.3185V24.5H34.2185V11.1H34.1185L28.0185 24.5H20.6185V4.19999ZM60.3185 4.19999V24.5H54.9185V16.6H47.8185V24.5H42.4185V4.19999H47.8185V11.9H54.9185V4.19999H60.3185ZM78.0185 24.4H72.6185V22.5H69.8185C68.5185 22.5 67.2185 22.4 66.3185 22.1C65.3185 21.9 64.6185 21.4 64.0185 20.8C63.4185 20.2 63.0185 19.3 62.8185 18.2C62.6185 17.1 62.4185 15.9 62.4185 14.3C62.4185 12.2 62.6185 10.6 63.1185 9.39999C63.6185 8.19999 64.3185 7.29999 65.4185 6.79999C66.5185 6.29999 68.0185 6.09999 69.8185 6.09999H72.6185V4.19999H78.0185V6.09999H80.7185C82.5185 6.09999 84.0185 6.29999 85.1185 6.79999C86.2185 7.29999 86.9185 8.09999 87.4185 9.39999C87.9185 10.7 88.1185 12.2 88.1185 14.3C88.1185 15.9 88.0185 17.2 87.7185 18.3C87.5185 19.3 87.0185 20.1 86.5185 20.9C85.9185 21.5 85.2185 22 84.2185 22.2C83.2185 22.4 82.1185 22.6 80.7185 22.6H78.0185V24.4ZM70.7185 17.8H72.5185V10.7H70.7185C70.0185 10.7 69.5185 10.8 69.0185 11.1C68.6185 11.3 68.3185 11.7 68.1185 12.2C68.0185 12.7 67.9185 13.4 67.9185 14.3C67.9185 15.3 68.0185 15.9 68.1185 16.5C68.2185 17 68.6185 17.4 69.0185 17.6C69.5185 17.7 70.0185 17.8 70.7185 17.8ZM78.0185 17.8H79.8185C80.5185 17.8 81.0185 17.7 81.4185 17.6C81.8185 17.4 82.1185 17 82.3185 16.5C82.5185 16 82.5185 15.3 82.5185 14.3C82.5185 13 82.3185 12.1 81.9185 11.5C81.5185 11 80.8185 10.8 79.7185 10.8H77.9185L78.0185 17.8ZM98.9185 24.7C97.4185 24.7 96.1185 24.6 95.0185 24.5C93.9185 24.3 92.9185 23.9 92.1185 23.4C91.2185 22.9 90.6185 22.2 90.2185 21.1C89.7185 20.1 89.5185 18.9 89.5185 17.3V11.6C89.5185 10.1 89.7185 8.79999 90.2185 7.79999C90.7185 6.79999 91.3185 6.09999 92.1185 5.49999C92.9185 4.89999 93.9185 4.59999 95.0185 4.29999C96.1185 4.09999 97.4185 3.89999 98.9185 3.89999C100.419 3.89999 101.719 3.99999 102.819 4.09999C103.919 4.29999 104.919 4.69999 105.719 5.19999C106.619 5.69999 107.219 6.49999 107.619 7.49999C108.119 8.49999 108.319 9.69999 108.319 11.3V17C108.319 18.5 108.119 19.8 107.619 20.8C107.119 21.8 106.519 22.5 105.719 23.1C104.819 23.7 103.919 24.1 102.819 24.2C101.719 24.5 100.319 24.7 98.9185 24.7ZM98.9185 19.9C99.9185 19.9 100.719 19.8 101.219 19.7C101.719 19.6 102.119 19.2 102.319 18.7C102.519 18.2 102.719 17.5 102.719 16.5V11.9C102.719 11.2 102.619 10.6 102.519 10.1C102.419 9.69999 102.119 9.39999 101.919 9.09999C101.719 8.89999 101.319 8.69999 100.819 8.59999C100.319 8.59999 99.7185 8.49999 99.0185 8.49999C98.0185 8.49999 97.2185 8.59999 96.7185 8.69999C96.2185 8.79999 95.8185 9.19999 95.6185 9.69999C95.4185 10.2 95.2185 10.9 95.2185 11.9V16.5C95.2185 17.5 95.3185 18.2 95.6185 18.7C95.8185 19.2 96.2185 19.4 96.7185 19.6C97.0185 19.8 97.8185 19.9 98.9185 19.9Z" fill="#FFDE00"/>
<path d="M108.719 4.19998H114.819L118.319 13H118.519L122.019 4.19998H128.219L120.519 19.9C119.919 21.1 119.319 22 118.719 22.7C118.119 23.4 117.519 23.9 116.819 24.2C116.119 24.5 115.119 24.7 114.119 24.7C113.419 24.7 112.419 24.6 111.419 24.5V20.1C111.819 20.2 112.419 20.3 113.219 20.3C113.819 20.3 114.319 20.3 114.519 20.2C114.719 20.2 115.019 20.1 115.119 19.8C115.219 19.7 115.319 19.3 115.519 18.9L108.719 4.19998ZM135.219 24.4H129.819V4.09998H140.019C141.219 4.09998 142.319 4.19998 143.319 4.49998C144.219 4.69998 144.919 5.19998 145.419 5.79998C145.919 6.39998 146.419 7.09998 146.619 8.09998C146.819 9.09998 147.019 10.2 147.019 11.5C147.019 13 146.919 14.2 146.819 15.2C146.619 16.2 146.219 16.9 145.719 17.5C145.219 18.1 144.519 18.5 143.619 18.7C142.719 18.9 141.519 19.1 140.119 19.1H135.419L135.219 24.4ZM135.219 14.5H138.919C139.619 14.5 140.119 14.4 140.519 14.3C140.919 14.2 141.119 13.9 141.219 13.4C141.319 13 141.319 12.3 141.319 11.5C141.319 10.8 141.319 10.3 141.219 9.79998C141.119 9.39998 140.819 9.19998 140.519 8.89998C140.119 8.79998 139.619 8.69998 138.919 8.69998H135.219V14.5ZM157.219 24.7C155.719 24.7 154.419 24.6 153.319 24.5C152.219 24.3 151.219 23.9 150.419 23.4C149.519 22.9 148.919 22.1 148.519 21.1C148.119 20.1 147.819 18.9 147.819 17.3V11.6C147.819 10.1 148.019 8.79998 148.519 7.79998C149.019 6.79998 149.619 6.09998 150.419 5.49998C151.319 4.99998 152.219 4.59998 153.319 4.39998C154.419 4.19998 155.719 4.19998 157.219 4.19998C158.719 4.19998 160.019 4.29998 161.119 4.39998C162.219 4.59998 163.219 4.99998 164.019 5.49998C164.919 5.99998 165.519 6.79998 165.919 7.79998C166.419 8.79998 166.619 9.99998 166.619 11.6V17.3C166.619 18.8 166.419 20.1 165.919 21.1C165.419 22.1 164.819 22.8 164.019 23.4C163.119 23.9 162.219 24.3 161.119 24.5C160.019 24.5 158.719 24.7 157.219 24.7ZM157.219 19.9C158.219 19.9 159.019 19.8 159.519 19.7C160.019 19.6 160.419 19.2 160.619 18.7C160.819 18.2 161.019 17.5 161.019 16.5V12C161.019 11.3 160.919 10.7 160.819 10.2C160.719 9.79997 160.419 9.49998 160.219 9.19998C160.019 8.89997 159.519 8.79998 159.119 8.79998C158.719 8.79998 158.019 8.69998 157.319 8.69998C156.319 8.69998 155.519 8.79998 155.019 8.89998C154.519 8.99998 154.119 9.39998 153.919 9.79998C153.719 10.3 153.519 11 153.519 12V16.6C153.519 17.6 153.619 18.3 153.919 18.8C154.119 19.3 154.519 19.5 155.019 19.8C155.419 19.8 156.119 19.9 157.219 19.9ZM174.019 4.19998V11.9H175.619L180.819 4.19998H187.419L180.219 14.2L188.019 24.5H181.319L175.619 16.6H174.019V24.5H168.619V4.19998H174.019Z" fill="white"/>
<path d="M0.218506 39.9V33.5H2.21851C2.91851 33.5 3.41851 33.8 3.71851 34.3C3.81851 34.6 3.91851 34.9 3.91851 35.2C3.91851 35.8 3.71851 36.3 3.21851 36.6C3.91851 36.8 4.21851 37.4 4.21851 38.2C4.21851 38.6 4.11851 38.9 4.01851 39.2C3.81851 39.5 3.61851 39.8 3.31851 39.9C3.01851 40 2.71851 40.1 2.21851 40.1H0.218506V39.9ZM0.918506 36.2H2.01851C2.31851 36.2 2.51851 36.2 2.61851 36.1C3.01851 36 3.21851 35.7 3.21851 35.2C3.21851 34.7 3.01851 34.4 2.71851 34.3C2.61851 34.3 2.31851 34.3 2.01851 34.3H0.918506V36.2ZM0.918506 39.2H2.21851C2.51851 39.2 2.71851 39.2 2.81851 39.1C3.21851 38.9 3.41851 38.6 3.41851 38.1C3.41851 37.6 3.21851 37.3 2.91851 37.1C2.71851 37 2.51851 37 2.11851 37H0.918506V39.2Z" fill="white"/>
<path d="M5.31848 39.9V33.5H9.11848V34.3H6.01848V36.3H9.01848V37.1H6.01848V39.3H9.21848V40.1H5.31848V39.9Z" fill="white"/>
<path d="M10.9185 33.5H14.1185V39.2H14.6185V41.5H14.0185V40H10.5185V41.5H9.91846V39.2H10.3185C10.7185 38.4 10.9185 36.8 10.9185 34.5V33.5ZM13.4185 34.3H11.6185V34.6C11.6185 36.6 11.4185 38.2 11.0185 39.2H13.4185V34.3Z" fill="white"/>
<path d="M15.1185 33.5H15.8185L17.5185 37.4L19.0185 33.5H19.7185L17.7185 38.5C17.5185 39 17.3185 39.4 17.3185 39.5C17.1185 39.9 16.8185 40 16.5185 40C16.3185 40 16.1185 39.9 15.8185 39.8V39.1C16.0185 39.3 16.2185 39.3 16.4185 39.3C16.6185 39.3 16.8185 39.2 17.0185 38.9C17.1185 38.8 17.2185 38.5 17.3185 38.2L15.1185 33.5Z" fill="white"/>
<path d="M20.5186 33.5H21.2186V39.2H23.0186V33.5H23.7186V39.2H25.5186V33.5H26.2186V39.2H26.7186V41.7H26.1186V39.9H20.6186V33.5H20.5186Z" fill="white"/>
<path d="M27.6185 33.5H28.2185V38.6L31.0185 33.5H31.7185V39.9H31.1185V34.8L28.3185 39.9H27.6185V33.5Z" fill="white"/>
<path d="M33.1185 33.5H33.7185V38.6L36.5185 33.5H37.2185V39.9H36.6185V34.8L33.8185 39.9H33.1185V33.5ZM35.9185 31.9H36.3185C36.2185 32.7 35.9185 33 35.2185 33C34.6185 33 34.2185 32.6 34.1185 31.9H34.5185C34.6185 32.3 34.8185 32.5 35.1185 32.5C35.6185 32.5 35.8185 32.3 35.9185 31.9Z" fill="white"/>
<path d="M40.6185 36.8C40.6185 35.9 40.8185 35.1 41.2185 34.5C41.7185 33.8 42.3185 33.4 43.2185 33.4C43.7185 33.4 44.1185 33.5 44.5185 33.8C44.9185 34.1 45.1185 34.4 45.4185 34.9C45.6185 35.4 45.7185 36 45.7185 36.7C45.7185 37.7 45.5185 38.4 45.0185 39C44.5185 39.7 43.9185 40 43.1185 40C42.3185 40 41.7185 39.7 41.2185 39C40.8185 38.4 40.6185 37.7 40.6185 36.8ZM41.3185 36.8C41.3185 37.5 41.4185 38 41.7185 38.5C42.0185 39.1 42.5185 39.3 43.1185 39.3C43.7185 39.3 44.2185 39 44.5185 38.4C44.8185 37.9 44.9185 37.4 44.9185 36.7C44.9185 35.6 44.6185 34.8 44.0185 34.4C43.7185 34.2 43.4185 34.1 43.1185 34.1C42.4185 34.1 42.0185 34.4 41.6185 35C41.4185 35.5 41.3185 36.1 41.3185 36.8Z" fill="white"/>
<path d="M46.7185 33.5H50.1185V34.3H47.4185V36.3H48.7185C49.1185 36.3 49.5185 36.3 49.7185 36.4C50.0185 36.5 50.3185 36.7 50.5185 37C50.7185 37.3 50.8185 37.6 50.8185 38.1C50.8185 38.4 50.7185 38.8 50.6185 39.1C50.4185 39.4 50.2185 39.7 50.0185 39.8C49.8185 39.9 49.4185 40 48.9185 40H46.8185V33.5H46.7185ZM47.4185 39.2H48.8185C49.6185 39.2 49.9185 38.8 49.9185 38.1C49.9185 37.5 49.7185 37.2 49.3185 37.1C49.1185 37 48.8185 37 48.3185 37H47.4185V39.2Z" fill="white"/>
<path d="M51.7185 39.9V33.5H53.7185C54.2185 33.5 54.5185 33.5 54.7185 33.6C55.0185 33.7 55.3185 34 55.5185 34.3C55.7185 34.6 55.7185 34.9 55.7185 35.3C55.7185 36.6 55.0185 37.3 53.7185 37.3H52.3185V39.9H51.7185ZM52.4185 36.6H53.8185C54.6185 36.6 55.0185 36.2 55.0185 35.4C55.0185 34.9 54.8185 34.5 54.5185 34.4C54.4185 34.3 54.1185 34.3 53.8185 34.3H52.4185V36.6Z" fill="white"/>
<path d="M56.2185 39.9L58.2185 33.5H59.0185L61.2185 39.9H60.4185L59.8185 37.9H57.6185L57.0185 39.9H56.2185ZM57.8185 37.3H59.6185L59.0185 35.5C58.8185 34.9 58.7185 34.5 58.6185 34.2C58.5185 34.6 58.4185 35 58.3185 35.4L57.8185 37.3Z" fill="white"/>
<path d="M61.6185 38.1L62.3185 37.9C62.4185 38.3 62.5185 38.6 62.7185 38.8C62.9185 39.1 63.2185 39.3 63.6185 39.3C63.9185 39.3 64.2185 39.2 64.5185 39C64.7185 38.8 64.8185 38.5 64.8185 38.1C64.8185 37.7 64.7185 37.4 64.4185 37.2C64.2185 37 63.9185 36.9 63.5185 36.9H63.2185V36.2C63.5185 36.2 63.7185 36.2 63.9185 36.2C64.1185 36.1 64.3185 36 64.4185 35.8C64.5185 35.6 64.6185 35.4 64.6185 35.2C64.6185 34.9 64.5185 34.7 64.3185 34.5C64.1185 34.3 63.9185 34.2 63.6185 34.2C63.1185 34.2 62.7185 34.5 62.5185 35C62.4185 35.3 62.4185 35.5 62.4185 35.7L61.7185 35.5C61.9185 34.1 62.5185 33.4 63.6185 33.4C64.1185 33.4 64.5185 33.6 64.8185 33.9C65.1185 34.2 65.3185 34.6 65.3185 35.1C65.3185 35.7 65.1185 36.2 64.6185 36.5C64.9185 36.6 65.1185 36.8 65.3185 37.1C65.5185 37.4 65.5185 37.7 65.5185 38C65.5185 38.6 65.3185 39 65.0185 39.4C64.7185 39.8 64.2185 39.9 63.6185 39.9C62.6185 40.1 61.9185 39.4 61.6185 38.1Z" fill="white"/>
<path d="M66.4185 36.8C66.4185 35.9 66.6185 35.1 67.0185 34.5C67.5185 33.8 68.1185 33.4 69.0185 33.4C69.5185 33.4 69.9185 33.5 70.3185 33.8C70.7185 34.1 70.9185 34.4 71.2185 34.9C71.4185 35.4 71.5185 36 71.5185 36.7C71.5185 37.7 71.3185 38.4 70.8185 39C70.3185 39.7 69.7185 40 68.9185 40C68.1185 40 67.5185 39.7 67.0185 39C66.6185 38.4 66.4185 37.7 66.4185 36.8ZM67.1185 36.8C67.1185 37.5 67.2185 38 67.5185 38.5C67.8185 39.1 68.3185 39.3 68.9185 39.3C69.5185 39.3 70.0185 39 70.3185 38.4C70.6185 37.9 70.7185 37.4 70.7185 36.7C70.7185 35.6 70.4185 34.8 69.8185 34.4C69.5185 34.2 69.2185 34.1 68.9185 34.1C68.2185 34.1 67.8185 34.4 67.4185 35C67.2185 35.5 67.1185 36.1 67.1185 36.8Z" fill="white"/>
<path d="M72.5186 39.9V33.5H74.5186C75.2186 33.5 75.7186 33.8 76.0186 34.3C76.1186 34.6 76.2186 34.9 76.2186 35.2C76.2186 35.8 76.0186 36.3 75.5186 36.6C76.2186 36.8 76.5186 37.4 76.5186 38.2C76.5186 38.6 76.4186 38.9 76.3186 39.2C76.1186 39.5 75.9186 39.8 75.6186 39.9C75.3186 40 75.0186 40.1 74.5186 40.1H72.5186V39.9ZM73.2186 36.2H74.3186C74.6186 36.2 74.8186 36.2 74.9186 36.1C75.3186 36 75.5186 35.7 75.5186 35.2C75.5186 34.7 75.3186 34.4 75.0186 34.3C74.9186 34.3 74.6186 34.3 74.2186 34.3H73.1186V36.2H73.2186ZM73.2186 39.2H74.5186C74.8186 39.2 75.0186 39.2 75.1186 39.1C75.5186 38.9 75.7186 38.6 75.7186 38.1C75.7186 37.6 75.5186 37.3 75.2186 37.1C75.0186 37 74.8186 37 74.4186 37H73.2186V39.2Z" fill="white"/>
<path d="M77.0186 39.9L79.0186 33.5H79.8186L82.0186 39.9H81.2186L80.6186 37.9H78.4186L77.8186 39.9H77.0186ZM78.5186 37.3H80.3186L79.8186 35.5C79.6186 34.9 79.5186 34.5 79.4186 34.2C79.3186 34.6 79.2186 35 79.1186 35.4L78.5186 37.3Z" fill="white"/>
<path d="M84.0185 39.9V34.3H82.3185V33.5H86.5185V34.3H84.8185V40H84.0185V39.9Z" fill="white"/>
<path d="M87.4185 39.9V33.5H91.2185V34.3H88.1185V36.3H91.0185V37.1H88.1185V39.3H91.3185V40.1H87.4185V39.9Z" fill="white"/>
<path d="M92.9186 33.5H96.2186V39.9H95.5186V34.3H93.6186V37.6C93.6186 38.2 93.6186 38.6 93.6186 38.8C93.5186 39.3 93.4186 39.6 93.2186 39.9C93.0186 40.1 92.8186 40.2 92.6186 40.2C92.4186 40.2 92.3186 40.2 92.0186 40.1L92.1186 39.3C92.2186 39.4 92.3186 39.4 92.4186 39.4C92.6186 39.4 92.8186 39.2 92.8186 38.9C92.8186 38.8 92.8186 38.5 92.8186 38.1V33.5H92.9186Z" fill="white"/>
<path d="M97.5186 33.5H98.2186V36.3H99.5186C99.9186 36.3 100.319 36.3 100.519 36.4C100.819 36.5 101.119 36.7 101.319 37C101.519 37.3 101.619 37.6 101.619 38.1C101.619 39.3 100.919 40 99.6186 40H97.6186V33.5H97.5186ZM98.2186 39.2H99.5186C99.9186 39.2 100.219 39.1 100.419 38.9C100.619 38.7 100.719 38.4 100.719 38C100.719 37.4 100.519 37.1 100.119 37C99.9186 36.9 99.6186 36.9 99.1186 36.9H98.2186V39.2Z" fill="white"/>
<path d="M102.519 39.9V33.5H103.219V36.1H105.919V33.5H106.619V39.9H106.019V36.9H103.319V39.9H102.519Z" fill="white"/>
<path d="M108.119 33.5H108.819V36.3H110.119C110.519 36.3 110.919 36.3 111.119 36.4C111.419 36.5 111.719 36.7 111.919 37C112.119 37.3 112.219 37.6 112.219 38.1C112.219 39.3 111.519 40 110.219 40H108.219V33.5H108.119ZM108.819 39.2H110.119C110.519 39.2 110.819 39.1 111.019 38.9C111.219 38.7 111.319 38.4 111.319 38C111.319 37.4 111.119 37.1 110.719 37C110.519 36.9 110.219 36.9 109.719 36.9H108.819V39.2ZM113.019 39.9V33.5H113.719V39.9H113.019Z" fill="white"/>
<path d="M115.119 33.5H115.719V38.6L118.519 33.5H119.219V39.9H118.619V34.8L115.819 39.9H115.119V33.5ZM117.919 31.9H118.319C118.219 32.7 117.919 33 117.219 33C116.619 33 116.219 32.6 116.119 31.9H116.519C116.619 32.3 116.819 32.5 117.119 32.5C117.619 32.5 117.919 32.3 117.919 31.9Z" fill="white"/>
<path d="M123.618 39.9H122.918V33.5H127.018V39.9H126.318V34.3H123.618V39.9Z" fill="white"/>
<path d="M128.119 36.8C128.119 35.9 128.319 35.1 128.719 34.5C129.219 33.8 129.819 33.4 130.719 33.4C131.219 33.4 131.619 33.5 132.019 33.8C132.419 34.1 132.619 34.4 132.919 34.9C133.119 35.4 133.219 36 133.219 36.7C133.219 37.7 133.019 38.4 132.519 39C132.019 39.7 131.419 40 130.619 40C129.819 40 129.219 39.7 128.719 39C128.419 38.4 128.119 37.7 128.119 36.8ZM128.919 36.8C128.919 37.5 129.019 38 129.319 38.5C129.619 39.1 130.119 39.3 130.719 39.3C131.319 39.3 131.819 39 132.119 38.4C132.419 37.9 132.519 37.4 132.519 36.7C132.519 35.6 132.219 34.8 131.619 34.4C131.319 34.2 131.019 34.1 130.719 34.1C130.019 34.1 129.619 34.4 129.219 35C129.019 35.5 128.919 36.1 128.919 36.8Z" fill="white"/>
<path d="M134.318 39.9V33.5H136.318C136.818 33.5 137.118 33.5 137.318 33.6C137.618 33.7 137.918 34 138.118 34.3C138.318 34.6 138.318 34.9 138.318 35.3C138.318 36.6 137.618 37.3 136.318 37.3H135.018V39.9H134.318ZM135.018 36.6H136.418C137.218 36.6 137.618 36.2 137.618 35.4C137.618 34.9 137.418 34.5 137.118 34.4C137.018 34.3 136.718 34.3 136.318 34.3H135.018V36.6Z" fill="white"/>
<path d="M140.719 39.9V34.3H139.019V33.5H143.219V34.3H141.519V40H140.719V39.9Z" fill="white"/>
<path d="M143.519 39.9L145.519 33.5H146.319L148.519 39.9H147.719L147.119 37.9H144.919L144.319 39.9H143.519ZM145.019 37.3H146.819L146.319 35.5C146.119 34.9 146.019 34.5 145.919 34.2C145.819 34.6 145.719 35 145.619 35.4L145.019 37.3Z" fill="white"/>
<path d="M149.519 33.5H152.819V39.9H152.119V34.3H150.219V37.6C150.219 38.2 150.219 38.6 150.219 38.8C150.119 39.3 150.019 39.6 149.819 39.9C149.619 40.1 149.419 40.2 149.219 40.2C149.019 40.2 148.919 40.2 148.619 40.1L148.719 39.3C148.819 39.4 148.919 39.4 149.019 39.4C149.219 39.4 149.419 39.2 149.419 38.9C149.419 38.8 149.419 38.5 149.419 38.1V33.5H149.519Z" fill="white"/>
<path d="M156.418 39.9V33.5H158.418C158.918 33.5 159.218 33.5 159.418 33.6C159.718 33.7 160.018 34 160.218 34.3C160.418 34.6 160.418 34.9 160.418 35.3C160.418 36.6 159.718 37.3 158.418 37.3H157.018V39.9H156.418ZM157.118 36.6H158.518C159.318 36.6 159.718 36.2 159.718 35.4C159.718 34.9 159.518 34.5 159.218 34.4C159.118 34.3 158.818 34.3 158.418 34.3H157.018V36.6H157.118Z" fill="white"/>
<path d="M161.318 36.8C161.318 35.9 161.518 35.1 161.918 34.5C162.418 33.8 163.018 33.4 163.918 33.4C164.418 33.4 164.818 33.5 165.218 33.8C165.618 34.1 165.818 34.4 166.118 34.9C166.318 35.4 166.418 36 166.418 36.7C166.418 37.7 166.218 38.4 165.718 39C165.218 39.7 164.618 40 163.818 40C163.018 40 162.418 39.7 161.918 39C161.518 38.4 161.318 37.7 161.318 36.8ZM162.018 36.8C162.018 37.5 162.118 38 162.418 38.5C162.718 39.1 163.218 39.3 163.818 39.3C164.418 39.3 164.918 39 165.218 38.4C165.518 37.9 165.618 37.4 165.618 36.7C165.618 35.6 165.318 34.8 164.718 34.4C164.418 34.2 164.118 34.1 163.818 34.1C163.118 34.1 162.718 34.4 162.318 35C162.118 35.5 162.018 36.1 162.018 36.8Z" fill="white"/>
<path d="M171.218 37.7L171.918 37.9C171.618 39.3 170.818 40.1 169.718 40.1C168.718 40.1 168.018 39.6 167.618 38.6C167.418 38.1 167.318 37.5 167.318 36.7C167.318 35.3 167.718 34.3 168.518 33.8C168.918 33.6 169.318 33.4 169.818 33.4C170.418 33.4 170.818 33.6 171.218 33.9C171.518 34.2 171.818 34.7 171.918 35.2L171.218 35.4C171.018 34.5 170.518 34.1 169.818 34.1C169.118 34.1 168.618 34.5 168.318 35.2C168.118 35.6 168.118 36.1 168.118 36.6C168.118 37.3 168.218 37.9 168.418 38.3C168.718 38.9 169.218 39.2 169.818 39.2C170.218 39.2 170.618 39 170.918 38.7C170.918 38.5 171.118 38.2 171.218 37.7Z" fill="white"/>
<path d="M176.718 37.7L177.418 37.9C177.118 39.3 176.318 40.1 175.218 40.1C174.218 40.1 173.518 39.6 173.118 38.6C172.918 38.1 172.818 37.5 172.818 36.7C172.818 35.3 173.218 34.3 174.018 33.8C174.418 33.6 174.818 33.4 175.318 33.4C175.918 33.4 176.318 33.6 176.718 33.9C177.018 34.2 177.318 34.7 177.418 35.2L176.718 35.4C176.518 34.5 176.018 34.1 175.318 34.1C174.618 34.1 174.118 34.5 173.818 35.2C173.618 35.6 173.618 36.1 173.618 36.6C173.618 37.3 173.718 37.9 173.918 38.3C174.218 38.9 174.718 39.2 175.318 39.2C175.718 39.2 176.118 39 176.418 38.7C176.518 38.5 176.618 38.2 176.718 37.7Z" fill="white"/>
<path d="M178.519 33.5H179.119V38.6L181.919 33.5H182.619V39.9H182.019V34.8L179.219 39.9H178.519V33.5Z" fill="white"/>
<path d="M183.918 33.5H184.518V38.6L187.318 33.5H188.018V39.9H187.418V34.8L184.618 39.9H183.918V33.5Z" fill="white"/>
</g>
<defs>
<clipPath id="clip0">
<rect x="0.0185547" y="0.299988" width="188" height="41.4" fill="white"/>
</clipPath>
</defs>
</svg>
