<svg width="205" height="205" viewBox="0 0 205 205" fill="none" xmlns="http://www.w3.org/2000/svg">
<g filter="url(#filter0_d)">
<rect x="25.4576" y="98.5117" width="108.901" height="108.901" rx="35" transform="rotate(-45.2035 25.4576 98.5117)" fill="white"/>
</g>
<g clip-path="url(#clip0)">
<path d="M138.505 77.4318L127.963 72.7424L123.27 62.1966L111.797 63.3946L102.464 56.626L93.1249 63.3946L81.658 62.1966L76.9679 72.7376L66.4221 77.4318L67.6208 88.9042L60.8522 98.2377L67.6208 107.577L66.4221 119.043L76.9638 123.733L81.658 134.279L93.1303 133.081L102.464 139.849L111.803 133.081L123.27 134.279L127.959 123.737L138.505 119.043L137.306 107.571L144.076 98.2377L137.306 88.8987L138.505 77.4318ZM94.1415 114.882L82.3651 103.106L86.2906 99.1946L94.1415 107.031L117.679 83.4934L121.605 87.4182L94.1415 114.882Z" fill="#0085FF"/>
<path d="M145.199 97.4236L138.74 88.5141L139.885 77.572C139.947 76.974 139.618 76.4044 139.069 76.1599L129.016 71.6865L124.543 61.6331C124.297 61.0852 123.728 60.7567 123.131 60.8163L112.186 61.9602L103.278 55.5024C102.792 55.1502 102.135 55.1502 101.649 55.5024L92.7399 61.9602L81.7965 60.8163C81.1999 60.7594 80.633 61.0872 80.3844 61.6317L75.911 71.6852L65.8576 76.1599C65.309 76.4038 64.9798 76.9733 65.0421 77.5707L66.1861 88.5141L59.7282 97.4236C59.3761 97.9092 59.3761 98.5662 59.7282 99.0518L66.1861 107.961L65.0421 118.905C64.9791 119.502 65.3083 120.072 65.8576 120.317L75.911 124.79L80.3844 134.844C80.6316 135.39 81.1992 135.718 81.7965 135.66L92.7399 134.516L101.649 140.974C102.135 141.326 102.792 141.326 103.278 140.974L112.186 134.516L123.131 135.66C123.728 135.721 124.296 135.392 124.543 134.845L129.016 124.792L139.069 120.317C139.617 120.072 139.947 119.503 139.885 118.906L138.74 107.962L145.199 99.0531C145.552 98.5675 145.552 97.9092 145.199 97.4236ZM136.183 106.763C135.982 107.04 135.89 107.381 135.926 107.721L137.019 118.19L127.4 122.473C127.086 122.611 126.834 122.861 126.695 123.176L122.416 132.795L111.944 131.7C111.604 131.665 111.263 131.757 110.987 131.958L102.464 138.137L93.9387 131.958C93.7023 131.786 93.4179 131.693 93.126 131.694C93.0772 131.694 93.0284 131.694 92.9871 131.7L82.5144 132.795L78.2354 123.176C78.0959 122.861 77.8453 122.61 77.5311 122.471L67.9063 118.19L68.9994 107.721C69.0347 107.381 68.9432 107.04 68.7428 106.763L62.5647 98.2377L68.7428 89.7129C68.9432 89.4358 69.0347 89.0945 68.9994 88.7545L67.9063 78.2845L77.5256 74.0028C77.8399 73.8647 78.0912 73.6141 78.23 73.2998L82.509 63.6805L92.9817 64.775C93.321 64.8088 93.6617 64.7167 93.9387 64.5169L102.464 58.3388L110.988 64.5169C111.265 64.7174 111.605 64.8088 111.945 64.775L122.417 63.6805L126.696 73.2998C126.836 73.6141 127.087 73.8647 127.401 74.0042L137.021 78.2845L135.928 88.7545C135.892 89.0945 135.983 89.4358 136.184 89.7129L142.362 98.2377L136.183 106.763Z" fill="#0065C2"/>
<path d="M118.66 82.5128C118.118 81.971 117.241 81.971 116.699 82.5128L94.1414 105.07L87.2712 98.2127C86.73 97.6729 85.8536 97.6729 85.3125 98.2127L81.3803 102.121C81.1195 102.381 80.9725 102.735 80.9725 103.103C80.9725 103.472 81.1195 103.825 81.3803 104.085L93.1567 115.862C93.6978 116.403 94.5762 116.403 95.1181 115.862L122.582 88.3976C123.123 87.8565 123.123 86.9781 122.582 86.4363L118.66 82.5128ZM94.1414 112.921L84.3277 103.107L86.2891 101.151L93.1621 108.009C93.7032 108.55 94.5803 108.55 95.1221 108.009L117.679 85.4542L119.643 87.4183L94.1414 112.921Z" fill="#0065C2"/>
</g>
<defs>
<filter id="filter0_d" x="0.457642" y="0.234131" width="204.008" height="204.008" filterUnits="userSpaceOnUse" color-interpolation-filters="sRGB">
<feFlood flood-opacity="0" result="BackgroundImageFix"/>
<feColorMatrix in="SourceAlpha" type="matrix" values="0 0 0 0 0 0 0 0 0 0 0 0 0 0 0 0 0 0 127 0"/>
<feOffset dy="4"/>
<feGaussianBlur stdDeviation="12.5"/>
<feColorMatrix type="matrix" values="0 0 0 0 0 0 0 0 0 0.52 0 0 0 0 1 0 0 0 0.42 0"/>
<feBlend mode="normal" in2="BackgroundImageFix" result="effect1_dropShadow"/>
<feBlend mode="normal" in="SourceGraphic" in2="effect1_dropShadow" result="shape"/>
</filter>
<clipPath id="clip0">
<rect x="59.4618" y="55.2383" width="86" height="86" fill="white"/>
</clipPath>
</defs>
</svg>
